{"accessors" : [{"bufferView" : 0, "byteOffset" : 0, "componentType" : 5125, "count" : 301536, "type" : "SCALAR", "max" : [82165], "min" : [0]}, {"bufferView" : 1, "byteOffset" : 0, "componentType" : 5126, "count" : 82166, "type" : "VEC3", "max" : [0.347027987241745, 6.623711109161377, 0.618232011795044], "min" : [-0.002369999885559082, 6.500482082366943, 0.39559900760650635]}, {"bufferView" : 1, "byteOffset" : 12, "componentType" : 5126, "count" : 82166, "type" : "VEC2", "max" : [2.7817769050598145, 3.505358934402466], "min" : [-1.8435720205307007, -4.637588977813721]}, {"bufferView" : 1, "byteOffset" : 20, "componentType" : 5126, "count" : 82166, "type" : "VEC3", "max" : [0.9998992681503296, 1.0000044107437134, 0.9999701380729675], "min" : [-0.9998645186424255, -0.9999834895133972, -0.9969508051872253]}, {"bufferView" : 0, "byteOffset" : 1206144, "componentType" : 5123, "count" : 204792, "type" : "SCALAR", "max" : [38560], "min" : [0]}, {"bufferView" : 2, "byteOffset" : 0, "componentType" : 5126, "count" : 38561, "type" : "VEC3", "max" : [0.38708698749542236, 7.011620998382568, 0.6650850176811218], "min" : [-0.28670600056648254, 6.0219550132751465, -0.12956200540065765]}, {"bufferView" : 2, "byteOffset" : 12, "componentType" : 5126, "count" : 38561, "type" : "VEC2", "max" : [1.0383919477462769, 0.749193012714386], "min" : [-0.4446980059146881, -1.7491929531097412]}, {"bufferView" : 2, "byteOffset" : 20, "componentType" : 5126, "count" : 38561, "type" : "VEC3", "max" : [0.9999897480010986, 1.000003457069397, 1.0000038146972656], "min" : [-0.9999724626541138, -0.9999563694000244, -0.9999921321868896]}, {"bufferView" : 0, "byteOffset" : 1615728, "componentType" : 5125, "count" : 604800, "type" : "SCALAR", "max" : [105138], "min" : [0]}, {"bufferView" : 3, "byteOffset" : 0, "componentType" : 5126, "count" : 105139, "type" : "VEC3", "max" : [0.3877680003643036, 6.992823123931885, 0.6560699939727783], "min" : [-0.26662498712539673, 6.250409126281738, 0.014643999747931957]}, {"bufferView" : 3, "byteOffset" : 12, "componentType" : 5126, "count" : 105139, "type" : "VEC2", "max" : [0, -0], "min" : [0, -0]}, {"bufferView" : 3, "byteOffset" : 20, "componentType" : 5126, "count" : 105139, "type" : "VEC3", "max" : [0.999994695186615, 0.9996188879013062, 0.9999381899833679], "min" : [-1.0000040531158447, -0.9984685778617859, -0.9999921321868896]}], "asset" : {"generator" : "Aspose.3D 21.1", "version" : "2.0"}, "buffers" : [{"uri" : "buffer.bin", "byteLength" : 39591040}], "bufferViews" : [{"buffer" : 0, "byteOffset" : 0, "byteLength" : 4034928, "target" : 34963}, {"buffer" : 0, "byteOffset" : 4034932, "byteLength" : 9649152, "byteStride" : 32, "target" : 34962}, {"buffer" : 0, "byteOffset" : 13684088, "byteLength" : 6553344, "byteStride" : 32, "target" : 34962}, {"buffer" : 0, "byteOffset" : 20237436, "byteLength" : 19353600, "byteStride" : 32, "target" : 34962}], "meshes" : [{"primitives" : [{"attributes" : {"POSITION" : 1, "TEXCOORD_0" : 2, "NORMAL" : 3}, "indices" : 0, "mode" : 4}]}, {"primitives" : [{"attributes" : {"POSITION" : 5, "TEXCOORD_0" : 6, "NORMAL" : 7}, "indices" : 4, "mode" : 4}]}, {"primitives" : [{"attributes" : {"POSITION" : 9, "TEXCOORD_0" : 10, "NORMAL" : 11}, "indices" : 8, "mode" : 4}]}], "nodes" : [{"mesh" : 0, "name" : "high-polyMesh_high-poly"}, {"mesh" : 1, "name" : "fghjMesh.001_fghj.001"}, {"mesh" : 2, "name" : "fghjMesh.010_fghj.010"}], "scene" : 0, "scenes" : [{"nodes" : [0, 1, 2]}]}